<svg xmlns="http://www.w3.org/2000/svg" viewBox="0 0 283.5 283.5"><path fill="#007ec7" d="M0 247.9c0 19.6 15.8 35.5 35.4 35.5h212.9c19.5-.1 35.2-16 35.1-35.5V35.2c0-19.4-15.7-35.1-35.1-35.2H35.5C16-.1.1 15.6 0 35.2v212.7z"/><path fill="#fff" d="M224.5 35.5c-27.3-3.5-54.8-5.2-82.4-5.3-27.8-.2-55.6 1.6-83.1 5.3-8.7 1.1-13.6 6-13.6 13.6V215c.1 4.6 3.1 8.6 7.6 9.8l10.6 1.9V249c0 2.6 2.3 4.1 4.9 4.1h17c2.4.2 4.4-1.6 4.6-4v-19.9c13.6 1.5 32.5 2.3 51.4 2.3s38.6-.8 52.2-2.3v19.7c.1 2.4 2 4.2 4.4 4.2h17.1c2.6 0 4.9-1.5 4.9-4.1v-22.3l10.6-1.9c4.2-.8 7.6-4.2 7.6-9.8V49.1c-.2-7.5-5.1-12.4-13.8-13.6M76.3 209.8c-5.3-.4-9.4-4.5-9.4-9.4.4-5 4.4-8.9 9.4-9.1 5.1 0 9.3 4.1 9.3 9.3 0 5-4.1 9.2-9.3 9.2m129.7 0c-5.3-.4-9.4-4.5-9.4-9.4.4-5 4.4-8.9 9.4-9.1 5.1 0 9.3 4.1 9.3 9.3-.1 5-4.2 9.2-9.3 9.2m17-46.5v.7c0 4.5-1.9 7.2-7.6 7.9-20.4 3.4-46.9 6.8-72.9 6.8-24.8.1-49.5-2.5-73.7-7.6-5.7-1.1-7.6-3.4-7.6-7.9V59.7c0-4.5 1.9-7.9 7.6-7.9l146.6.8c5.7 0 7.6 3.4 7.6 7.9v102.8z"/></svg>